<svg xmlns="http://www.w3.org/2000/svg" xmlns:xlink="http://www.w3.org/1999/xlink" width="595.28" height="595.28" xml:space="preserve"><path fill="#F68F4C" d="M416.729 38.274c-1.889 30.644 2.873 61.68 13.863 90.347.906 2.363 1.292 5.941-1.158 6.577-.531.138-1.092.076-1.636.006-14.301-1.832-27.299-8.322-39.692-15.342-9.934-5.627-30.506-12.944-36.244-23.196-6.767-12.091 16.94-22.874 25.172-29.013a6870.045 6870.045 0 0 1 20.226-15.025c2.66-1.968 19.292-11.484 19.469-14.354zM579.155 298.731c-39.473 10.259-68.321 43.617-104.492 62.46 2.398-1.249-1.724-42.484-1.7-47.412.077-15.763-.068-33.533 4.306-48.811 8.559-29.891 44.42-.955 58.654 8.669 13.807 9.335 27.663 18.893 43.232 25.094zM393.901 454.707c9.169-5.458 18.763-11.056 29.401-11.886a812.478 812.478 0 0 0 18.395 103.799c-25.716-16.173-52.068-31.11-78.522-46.021-32.22-18.16 14.73-36.37 30.726-45.892z"/><image overflow="visible" width="399" height="423" xlink:href="DCCE5426.png" transform="matrix(.24 0 0 .24 143.04 452.96)"/><path fill="#F68F4C" d="M94.714 329.669c-.667.536-1.632.4-2.472.235A2695.214 2695.214 0 0 1 9.151 312.27c-.96-.22-1.979-.473-2.656-1.188-1.999-2.116.675-5.343 3.104-6.947 33.307-16.653 62.61-42.685 98.163-55.185-1.425 13.662-5.769 26.345-9.776 39.37-2.52 8.196 1.552 37.472-3.272 41.349zM136.718 42.457a263.328 263.328 0 0 0 60.086 36.848c11.436 5.047 23.642 9.552 32.207 18.657-3.178-3.379-44.986 18.032-50.054 20.461-11.719 5.617-27.05 17.98-40.978 14.79-30.053-6.883-6.483-72.679-1.261-90.756z"/><path fill="#F6C11E" d="M185.556 149.841c-9.935 6.674-19.459 14.205-26.822 23.64-7.458 9.556-12.478 20.775-16.714 32.132-20.815 55.799-23.985 118.034-8.948 175.659 3.541 13.568 8.249 27.226 17.227 37.997 6.505 7.804 14.977 13.743 23.816 18.753a162.256 162.256 0 0 0 49.769 18.23c17.661 3.336 35.745 3.709 53.717 3.455 36.578-.516 73.904-3.773 107.456-18.352 33.551-14.579 63.11-42.135 72.241-77.559 3.239-12.566 3.848-25.663 3.661-38.638-.732-50.661-14.137-102.273-44.962-142.483-5.662-7.387-11.9-14.389-16.599-22.423-3.838-6.563-6.644-13.801-11.503-19.65-8.507-10.239-21.926-14.714-34.621-18.717-28.315-8.928-55.604-16.259-84.613-7.243-29.581 9.195-57.024 17.68-83.105 35.199z"/><g fill="#231F20"><path d="M422.715 536.687c-2.264 0-4.22-1.669-5.45-2.719-.204-.174-.383-.335-.535-.45-4.574-1.708-22.873-9.861-41.124-18.75-35.876-17.474-37.395-21.011-38.044-22.521-3.104-7.222 11.266-15.277 39.081-30.067 16.469-8.757 41.356-21.991 41.472-27.444v-.001c.039-1.825 1.23-2.479 1.74-2.675a2.684 2.684 0 0 1 2.913.666c.782.829.902.957 2.179 15.85a1374.64 1374.64 0 0 1 2.318 31.48c2.901 46.873.663 51.791-.073 53.408-.978 2.151-2.44 2.881-3.493 3.115a4.534 4.534 0 0 1-.984.108zm-5.758-3.086h.01-.01zm-74.422-43.409c4.731 6.113 66.384 34.813 76.241 38.383.703.254 1.258.728 1.96 1.327.362.309 1.096.935 1.632 1.255 2.952-7.113-1.346-67.349-3.319-88.656-6.674 6.452-20.634 14.157-39.895 24.399-9.71 5.164-18.882 10.041-25.862 14.408-9.337 5.842-10.59 8.299-10.757 8.884zm78.252-55.399 2.672.056.001-.017-2.673-.039zM296.124 356.677c-25.592 0-52.804-12.036-71.153-22.152a2.672 2.672 0 1 1 2.581-4.681c14.669 8.088 36.656 18.284 58.092 20.923 23.714 2.917 41.989-3.891 54.311-20.243a2.673 2.673 0 1 1 4.27 3.217c-12.757 16.93-30.026 22.936-48.101 22.936zM138.098 147.496c-1.59 0-2.691-.406-3.464-1.156-1.157-1.12-2.906-2.816-1.589-30.566.613-12.933 1.764-27.41 2.276-30.19.533-2.895.564-6.979.595-11.302.08-10.918.171-23.292 8.602-25.935v-.001c10.053-3.151 16.557 3.071 22.848 9.09 3.299 3.157 6.711 6.421 10.712 8.472 1.782.913 14.868 9.239 27.033 17.689 25.752 17.888 25.229 20.728 24.848 22.801-.579 3.154-5.02 4.701-18.068 7.748-1.942.454-3.951.922-4.484 1.122-1.811.679-8.048 4.008-15.271 7.863-33.085 17.662-47.582 24.365-54.038 24.365zm.551-4.611h.01-.01zm7.468-89.439c-4.714 1.478-4.792 12.233-4.856 20.874-.033 4.564-.066 8.876-.683 12.231-1.019 5.533-3.821 48.548-2.13 55.703 6.577-.032 37.65-16.621 51.171-23.838 7.994-4.268 13.77-7.351 15.913-8.154.818-.306 2.327-.664 5.144-1.322 3.333-.778 10.515-2.455 13.4-3.756-5.893-7.194-44.639-32.574-48.435-34.52-4.696-2.406-8.394-5.945-11.971-9.366-6.519-6.236-10.857-9.952-17.553-7.852zM217.462 276.217a2.67 2.67 0 0 1-1.607-.537l-3.131-2.356a2.63 2.63 0 0 1-.594-.62l-2.811-4.082a2.675 2.675 0 0 1-.428-2l.576-3.125-.434-6.88a2.673 2.673 0 0 1 5.335-.337l.159 2.513a2.673 2.673 0 0 1 4.337 2.539l-.521 2.825.913 3.159c.035.121.062.245.079.37l.773 5.486a2.674 2.674 0 0 1-2.646 3.045zM149.826 552.162c-.746 0-1.392-.252-2.011-.719-1.159-.876-1.159-.876-2.142-15.473a1301.888 1301.888 0 0 1-1.686-30.514c-1.303-30.405-.876-48.741 1.271-54.498.637-1.704 2.384-3.59 7.105-2.889 11.87 1.757 40.509 19.275 49.003 24.603 9.234 5.791 17.954 11.66 24.552 16.527 11.51 8.489 11.622 10.254 11.703 11.544.316 5.046-10.646 10.802-50.995 26.779-6.092 2.412-10.902 4.317-12.986 5.293-.713.433-3.887 3.468-6.436 5.907-10.138 9.695-14.505 13.44-17.378 13.44zm2.208-3.394h.01-.01zm-1.912-95.517c-3.71 11.837.331 76.579 1.602 92.23 3.21-2.421 8.571-7.548 11.786-10.622 4.859-4.647 6.666-6.323 7.864-6.884 2.23-1.045 7.109-2.977 13.285-5.423 12.953-5.129 42.518-16.836 47.249-21.542-3.19-3.531-18.261-14.662-39.145-27.371-26.253-15.975-39.614-20.874-42.641-20.388zM90.113 336.561c-15.033.002-44.245-17.215-49.93-20.996-6.411-4.265-12.501-6.806-18.101-7.551-.813-.108-1.927-.256-2.612-1.429a2.702 2.702 0 0 1-.176-2.348c5.913-14.894 58.044-52.951 78.563-57.353 4.175-.895 7.11-.451 8.975 1.36 2.015 1.954 1.793 6.132-3.486 27.011-.551 2.181-1.027 4.064-1.142 4.689-.343 1.865-.408 7.387-.478 13.234-.327 27.639-1.576 41.11-7.8 42.909-1.126.323-2.409.474-3.813.474zm-64.244-33.292c5.509 1.243 11.304 3.873 17.274 7.845 9.839 6.544 39.896 22.557 49.298 19.836 0-.02 1.987-1.41 3.061-13.458.681-7.644.79-16.923.879-24.379.08-6.865.14-11.825.565-14.138.147-.797.573-2.482 1.217-5.032 1.181-4.668 4.636-18.336 4.534-22.047-.568-.147-1.717-.217-3.72.213-17.794 3.818-62.889 35.877-73.108 51.16zm-4.092 1.953h.01-.01zm80.862-53.881z"/><path d="M275.621 472.754c-15.141.001-30.047-4.646-44.549-9.166-3.748-1.168-7.289-2.272-10.853-3.303-41.086-11.891-66.5-25.57-77.693-41.817-24.37-35.371-31.191-85.521-19.203-141.213 10.377-48.217 34.086-96.87 63.419-130.146 29.377-33.324 85.993-35.169 127.332-36.517 2.936-.096 5.803-.189 8.587-.291h.001c16.724-.603 25.657 6.007 35.966 13.672 3.335 2.478 6.781 5.041 10.727 7.53 28.586 18.026 51.425 41.963 67.883 71.145 16.133 28.606 25.437 60.973 27.655 96.204.734 11.677-4.827 25.708-9.734 38.088-1.943 4.903-3.778 9.533-5.076 13.636-15.226 48.114-32.841 75.796-58.901 92.565-25.948 16.696-60.334 22.537-106.081 28.967a68.386 68.386 0 0 1-9.48.646zm47.236-357.111c-2.792.102-5.666.196-8.61.292-40.364 1.315-95.646 3.118-123.497 34.709-28.755 32.62-52.009 80.372-62.203 127.735-11.673 54.237-5.146 102.911 18.38 137.056 10.32 14.979 35.479 28.341 74.779 39.715 3.616 1.047 7.348 2.21 10.957 3.335 16.954 5.283 34.482 10.743 51.694 8.329 91.816-12.905 130.286-21.965 160.629-117.852 1.355-4.283 3.225-8.999 5.204-13.993 4.7-11.858 10.028-25.299 9.368-35.782-4.416-70.162-37.463-128.108-93.054-163.163-4.12-2.598-7.65-5.223-11.064-7.762-9.891-7.354-17.683-13.175-32.583-12.619z"/><path d="M350.695 280.271c-1.457 0-2.434-.789-2.797-1.142-3.395-3.299-1.534-15.334-.491-19.565a5.43 5.43 0 0 1 .054-.388l.043.008a.066.066 0 0 0 .004-.015l-.044-.008.044.008c.146-.549.27-.914.351-1.039a2.676 2.676 0 0 1 3.231-1.031c1.18.469 1.854 1.782 1.631 3.031-.155 1.211.799 6.796 1.312 9.799 1.229 7.193 1.386 8.117-.275 9.258-1.17.807-2.201 1.084-3.063 1.084zm-.604-20.611h.01-.01zm-2.629-.483.043.008-.043-.008zM422.585 137.656c-17.853 0-34.34-9.195-50.313-18.103-10.517-5.866-20.452-11.406-30.534-14.339-3.411-.991-6.177-4.385-6.299-7.728-.272-7.387 19.504-19.725 19.704-19.837 2.875-1.619 7.282-5.007 12.383-8.93 15.702-12.074 35.242-27.102 47.311-21.608 5.773 2.627 10.237 15.972 13.266 39.664 2.336 18.271 3.023 37.881 1.598 45.614-.251 1.362-.917 4.979-3.896 5.166a51.172 51.172 0 0 1-3.22.101zm-13.556-86.387c-10.04 0-26.74 12.841-38.245 21.688-5.264 4.048-9.81 7.544-13.019 9.35-5.537 3.118-16.686 12.345-16.986 15.03.039.994 1.275 2.403 2.45 2.745l.001.001c10.663 3.102 21.33 9.05 31.645 14.802 15.895 8.866 32.351 18.031 49.429 17.394 2.28-7.461-.005-50.469-6.839-71.415-2.376-7.282-4.308-8.643-4.842-8.887-1.065-.485-2.273-.708-3.594-.708zM480.207 363.41c-1.708 0-3.301-.659-4.651-1.935-6.241-5.895-5.692-23.732-5.677-23.903.857-10.379 3.079-21.739 5.431-33.767 3.77-19.28 7.668-39.216 5.752-55.404-.339-2.866 1.009-4.097 1.842-4.575 2.996-1.716 6.897 1.048 14.099 6.494 2.761 2.087 5.617 4.247 7.518 5.238 2.626 1.369 5.403 2.629 8.089 3.848 3.296 1.496 6.703 3.042 9.97 4.843 1.262.696 4.478 2.463 8.689 4.777 7.122 3.914 17.09 9.393 25.274 13.9 4.094 2.255 7.74 4.267 10.363 5.72 1.314.728 2.372 1.316 3.101 1.724 1.193.669 3.416 1.915 2.164 4.24-2.813 5.103-13.852 11.508-27.993 19.353-4.854 2.693-9.045 5.018-11.299 6.573-4.324 2.978-10.34 9.174-16.708 15.733-12.246 12.613-24.91 25.655-35.002 27.073a6.827 6.827 0 0 1-.962.068zm6.343-113.947c1.573 16.667-2.272 36.331-5.995 55.368-2.322 11.878-4.516 23.096-5.349 33.181-.293 3.528.699 16.439 4.021 19.577.533.504.901.501 1.197.459 8.279-1.163 21.382-14.659 31.912-25.503 6.557-6.754 12.751-13.134 17.51-16.411 2.467-1.701 6.764-4.085 11.74-6.845 8.013-4.445 19.518-10.828 24.153-15.178-7.128-3.959-26.71-14.72-37.044-20.4-4.215-2.316-7.432-4.084-8.695-4.78-3.084-1.701-6.396-3.203-9.597-4.656-2.752-1.249-5.597-2.54-8.352-3.976-2.297-1.198-5.198-3.391-8.271-5.714-2.073-1.568-5.166-3.906-7.23-5.122z"/></g></svg>